<?xml version="1.0" encoding="UTF-8" standalone="no"?>
<!-- Created with Inkscape (http://www.inkscape.org/) -->

<svg
   xmlns:dc="http://purl.org/dc/elements/1.1/"
   xmlns:cc="http://creativecommons.org/ns#"
   xmlns:rdf="http://www.w3.org/1999/02/22-rdf-syntax-ns#"
   xmlns:svg="http://www.w3.org/2000/svg"
   xmlns="http://www.w3.org/2000/svg"
   xmlns:sodipodi="http://sodipodi.sourceforge.net/DTD/sodipodi-0.dtd"
   xmlns:inkscape="http://www.inkscape.org/namespaces/inkscape"
   width="210mm"
   height="297mm"
   id="svg3258"
   version="1.1"
   inkscape:version="0.48.4 r9939"
   sodipodi:docname="data.svg">
  <defs
     id="defs3260" />
  <sodipodi:namedview
     id="base"
     pagecolor="#ffffff"
     bordercolor="#666666"
     borderopacity="1.0"
     inkscape:pageopacity="0.0"
     inkscape:pageshadow="2"
     inkscape:zoom="0.35"
     inkscape:cx="375"
     inkscape:cy="520"
     inkscape:document-units="px"
     inkscape:current-layer="layer1"
     showgrid="false"
     inkscape:window-width="1600"
     inkscape:window-height="876"
     inkscape:window-x="0"
     inkscape:window-y="24"
     inkscape:window-maximized="1" />
  <metadata
     id="metadata3263">
    <rdf:RDF>
      <cc:Work
         rdf:about="">
        <dc:format>image/svg+xml</dc:format>
        <dc:type
           rdf:resource="http://purl.org/dc/dcmitype/StillImage" />
        <dc:title></dc:title>
      </cc:Work>
    </rdf:RDF>
  </metadata>
  <g
     inkscape:label="Calque 1"
     inkscape:groupmode="layer"
     id="layer1">
    <g
       id="g730"
       transform="matrix(1.8959322,0,0,-1.8959322,296.06356,432.91849)"
       style="fill:#d40000"
       inkscape:export-filename="/home/jadi-g/doc/attach/path7.png"
       inkscape:export-xdpi="90"
       inkscape:export-ydpi="90">
      <path
         d="m 0,0 c 0,0 -0.986,8.111 0.803,12.791 1.787,4.678 2.978,5.721 8.486,6.503 5.508,0.782 8.539,2.947 9.313,3.659 0.773,0.713 2.019,1.477 2.767,1.811 0,0 -0.215,5.566 -2.929,8.824 0,0 -1.037,0.385 -1.213,1.126 -0.18,0.739 -0.71,3.999 0.058,5.362 0,0 0.506,0.645 0.451,1.106 -0.053,0.463 -0.646,4.564 3.018,7.879 0,0 1.082,1.74 -1.539,2.033 0,0 1.219,0.633 3.032,-0.289 0,0 -0.731,1.104 0.423,1.691 0,0 -0.494,-1.771 1.43,-1.185 1.922,0.586 4.661,1.108 6.478,0.433 1.82,-0.676 2.256,-1.615 4.575,-1.748 2.322,-0.132 3.15,-3.092 3.212,-4.209 0.061,-1.117 -0.057,-5.652 0.367,-6.264 0.426,-0.609 0.569,-1.053 0.426,-2.142 -0.142,-1.09 -1.015,-3.91 -1.505,-3.957 -0.487,-0.044 -0.9,-0.459 -0.931,-0.637 -0.029,-0.177 -1.42,-4.076 -1.396,-5.456 0.024,-1.38 0.053,-2.958 1.129,-3.278 1.076,-0.323 2.473,-2.27 3.334,-3.133 0.865,-0.863 5.938,-2.034 8.234,-3.11 2.299,-1.078 3.232,-0.916 4.574,-5.409 C 53.939,7.908 55.004,3.292 55.02,0 L 0,0 z"
         style="fill:#d40000;fill-opacity:1;fill-rule:evenodd;stroke:none"
         id="path732"
         inkscape:connector-curvature="0" />
    </g>
    <g
       id="g384"
       transform="matrix(2.1756199,0,0,-2.1756199,326.02723,258.93198)"
       style="fill:#d40000"
       inkscape:export-filename="/home/jadi-g/doc/attach/path7.png"
       inkscape:export-xdpi="90"
       inkscape:export-ydpi="90">
      <path
         d="m 0,0 c 0.014,-0.312 0.02,-0.63 0.02,-0.948 0,-9.676 -7.428,-20.829 -21.017,-20.829 -4.169,0 -8.052,1.212 -11.319,3.287 0.577,-0.068 1.166,-0.101 1.761,-0.101 2.04,0 4.056,0.399 5.903,1.256 1.687,0.782 3.186,1.878 4.47,3.208 -1.547,1.624 -2.314,3.267 -2.314,3.267 -5.4,11.356 -9.82,10.545 -9.82,10.545 6.055,3.245 15.875,-0.973 15.875,-0.973 0.338,-0.169 0.652,-0.338 0.968,-0.507 0.335,1.858 0.739,3.688 1.631,5.268 1.295,2.294 3.797,3.75 6.449,3.75 2.125,0 4.045,-0.889 5.389,-2.311 1.688,0.327 3.266,0.935 4.693,1.774 C 2.14,4.978 0.968,3.544 -0.559,2.639 0.935,2.815 2.359,3.208 3.684,3.789 2.698,2.322 1.443,1.032 0,0"
         style="fill:#d40000;fill-opacity:1;fill-rule:nonzero;stroke:none"
         id="path386"
         inkscape:connector-curvature="0" />
    </g>
    <g
       id="g254"
       transform="matrix(2.1756199,0,0,-2.1756199,330.76875,135.16119)"
       style="fill:#d40000"
       inkscape:export-filename="/home/jadi-g/doc/attach/path7.png"
       inkscape:export-xdpi="90"
       inkscape:export-ydpi="90">
      <path
         d="M 0,0 -5.307,-1.087 -3.738,2.456 1.57,3.542 0,0 z m -10.192,-2.087 -5.308,-1.087 1.571,3.542 5.306,1.087 -1.569,-3.542 z m -9.709,-1.988 -5.308,-1.087 1.569,3.542 5.307,1.088 -1.568,-3.543 z M 2.97,5.482 -31.527,-1.582 -30.309,-7.859 4.188,-0.796 2.97,5.482 z m -10.879,-25.808 -7.543,-5.559 0,11.118 7.543,-5.559 z m 9.922,-7.665 -29.846,0 0,15.33 29.846,0 0,-15.33 z m -32.306,-2.527 34.766,0 0,20.384 -34.766,0 0,-20.384 z"
         style="fill:#d40000;fill-opacity:1;fill-rule:nonzero;stroke:none"
         id="path256"
         inkscape:connector-curvature="0" />
    </g>
    <g
       id="g492"
       transform="matrix(2.1756199,0,0,-2.1756199,429.30693,249.53066)"
       style="fill:#d40000"
       inkscape:export-filename="/home/jadi-g/doc/attach/path7.png"
       inkscape:export-xdpi="90"
       inkscape:export-ydpi="90">
      <path
         d="m -0.91927827,-3.6771129 -5.94499993,0 0,-9.3169991 c 0,-2.504 -2.0290004,-4.542 -4.5209998,-4.542 l -6.959,0 -2.959,-1.87 0,-0.292 c 0,-1.171 0.953,-2.128 2.119,-2.128 l 6.582,0 7.5459998,-4.766 c -0.836,1.736 -1.26,3.537 -1.47,4.766 l 5.60699993,0 c 1.16500003,0 2.11900007,0.957 2.11900007,2.128 l 0,13.8909992 c 0,1.172 -0.95400004,2.1299999 -2.11900007,2.1299999 M -27.613278,-20.914112 c 0.961,1.995 1.447,4.065 1.689,5.473 l -6.441,0 c -1.339,0 -2.435,1.101 -2.435,2.447 l 0,15.9559992 c 0,1.344 1.096,2.446 2.435,2.446 l 20.98,0 c 1.339,0 2.4339994,-1.102 2.4339994,-2.446 l 0,-15.9559992 c 0,-1.346 -1.0949994,-2.447 -2.4339994,-2.447 l -7.56,0 -8.668,-5.473 z"
         style="fill:#d40000;fill-opacity:1;fill-rule:nonzero;stroke:none"
         id="path494"
         inkscape:connector-curvature="0" />
    </g>
    <g
       id="g734"
       transform="matrix(1.25,0,0,-1.25,459.56679,140.27315)"
       style="fill:#d40000"
       inkscape:export-filename="/home/jadi-g/doc/attach/path7.png"
       inkscape:export-xdpi="90"
       inkscape:export-ydpi="90">
      <path
         d="m 0,0 0,-37.226 c -2.494,1.086 -5.949,1.086 -9.298,-0.624 -4.969,-2.568 -6.376,-7.23 -4.471,-10.191 1.925,-2.956 7.162,-4.199 12.13,-1.64 3.58,1.835 5.308,4.774 5.29,7.375 l 0,28.449 29.175,5.837 0,-25.558 c -2.494,1.09 -5.949,1.09 -9.297,-0.619 -4.969,-2.571 -6.377,-7.233 -4.471,-10.194 1.906,-2.952 7.142,-4.203 12.129,-1.633 3.58,1.83 5.308,4.773 5.29,7.369 l 0,45.953 L 0,0 z"
         style="fill:#d40000;fill-opacity:1;fill-rule:nonzero;stroke:none"
         id="path736"
         inkscape:connector-curvature="0" />
    </g>
    <g
       id="g842"
       transform="matrix(1.6139719,0,0,-1.6139719,235.07094,154.74999)"
       style="fill:#d40000"
       inkscape:export-filename="/home/jadi-g/doc/attach/path7.png"
       inkscape:export-xdpi="90"
       inkscape:export-ydpi="90">
      <path
         d="m 0,0 c -1.841,2.491 -3.83,3.769 -5.912,3.799 -0.025,0 -0.05,10e-4 -0.074,10e-4 -3.305,0 -5.818,-3.154 -5.843,-3.186 l -0.788,0.616 c 0.115,0.147 2.833,3.57 6.629,3.57 0.028,0 0.055,-10e-4 0.084,-10e-4 2.413,-0.032 4.67,-1.446 6.708,-4.204 L 0,0 z m 0,-3.5 c -1.841,2.491 -3.83,3.769 -5.912,3.799 -0.025,0 -0.05,0.001 -0.074,0.001 -3.305,0 -5.818,-3.154 -5.843,-3.186 l -0.788,0.616 c 0.115,0.147 2.833,3.57 6.629,3.57 0.028,0 0.055,-0.001 0.084,-0.001 2.413,-0.032 4.67,-1.446 6.708,-4.204 L 0,-3.5 z M 0,-7 c -1.841,2.491 -3.83,3.769 -5.912,3.799 -3.309,0.014 -5.892,-3.153 -5.917,-3.185 l -0.788,0.616 c 0.115,0.147 2.833,3.57 6.629,3.57 0.028,0 0.055,-10e-4 0.084,-10e-4 2.413,-0.032 4.67,-1.446 6.708,-4.204 L 0,-7 z m -20.375,7 c -1.841,2.491 -3.83,3.769 -5.912,3.799 -0.025,0 -0.05,10e-4 -0.074,10e-4 -3.305,0 -5.818,-3.154 -5.843,-3.186 l -0.788,0.616 c 0.115,0.147 2.833,3.57 6.629,3.57 0.028,0 0.055,-10e-4 0.084,-10e-4 2.413,-0.032 4.67,-1.446 6.708,-4.204 L -20.375,0 z m 0,-3.5 c -1.841,2.491 -3.83,3.769 -5.912,3.799 -0.025,0 -0.05,0.001 -0.074,0.001 -3.305,0 -5.818,-3.154 -5.843,-3.186 l -0.788,0.616 c 0.115,0.147 2.833,3.57 6.629,3.57 0.028,0 0.055,-0.001 0.084,-0.001 2.413,-0.032 4.67,-1.446 6.708,-4.204 L -20.375,-3.5 z m 0,-3.5 c -1.841,2.491 -3.83,3.769 -5.912,3.799 -0.025,0 -0.05,10e-4 -0.074,10e-4 -3.305,0 -5.818,-3.154 -5.843,-3.186 l -0.788,0.616 c 0.115,0.147 2.833,3.57 6.629,3.57 0.028,0 0.055,-10e-4 0.084,-10e-4 2.413,-0.032 4.67,-1.446 6.708,-4.204 L -20.375,-7 z M 4.722,6.834 C 4.3,7.414 3.51,8.257 2.508,9.1 c -3.162,2.663 -6.666,3.795 -10.013,3.242 -4.321,-0.711 -6.85,-2.794 -8.221,-4.48 -1.396,1.686 -3.925,3.769 -8.22,4.48 -0.554,0.105 -1.134,0.132 -1.687,0.132 -3.847,0 -7.536,-2.109 -11.013,-6.271 l -0.027,-0.027 c -0.263,-0.184 -0.449,-0.447 -0.555,-0.764 -0.104,-0.29 -0.104,-0.527 -0.078,-0.738 l 0,-30.618 c 0,-0.632 0.37,-1.212 0.949,-1.449 0.58,-0.237 1.265,-0.132 1.712,0.317 0.053,0.078 6.193,5.875 11.251,5.875 4.506,0 6.087,-4.98 6.14,-5.191 0,-0.026 0.026,-0.026 0.026,-0.052 0,-0.027 0.027,-0.08 0.054,-0.106 0.026,-0.053 0.052,-0.106 0.078,-0.158 0.027,-0.026 0.027,-0.053 0.053,-0.08 0.026,-0.051 0.079,-0.104 0.106,-0.156 0.026,-0.027 0.026,-0.054 0.052,-0.054 l 0.185,-0.184 c 0.052,-0.054 0.132,-0.106 0.183,-0.132 0,0 0.028,0 0.028,-0.026 0.237,-0.132 0.5,-0.211 0.763,-0.211 l 0.212,0 c 0.026,0 0.052,0 0.078,0.026 0.027,0 0.054,0 0.08,0.026 0.052,0.027 0.131,0.027 0.184,0.053 0.026,0 0.053,0.027 0.053,0.027 0.053,0.026 0.132,0.052 0.184,0.105 0.026,0 0.026,0.026 0.053,0.026 0.053,0.027 0.105,0.079 0.157,0.132 l 0.186,0.185 c 0.026,0.027 0.026,0.052 0.052,0.079 0.027,0.053 0.08,0.104 0.105,0.158 0.027,0.026 0.027,0.078 0.053,0.105 0.026,0.053 0.053,0.105 0.053,0.158 0,0.027 0.026,0.027 0.026,0.052 0.053,0.211 1.634,5.191 6.14,5.191 5.058,0 11.225,-5.796 11.277,-5.875 0.29,-0.29 0.686,-0.448 1.081,-0.448 0.21,0 0.421,0.052 0.632,0.132 0.579,0.237 0.949,0.816 0.949,1.448 l 0,30.487 c 0.025,0.106 0.025,0.237 0.025,0.342 0,0.528 -0.131,0.818 -1.132,1.976"
         style="fill:#d40000;fill-opacity:1;fill-rule:nonzero;stroke:none"
         id="path844"
         inkscape:connector-curvature="0" />
    </g>
    <path
       style="fill:#d40000"
       d="m 395.3918,128.50529 c -20.42269,0 -36.97609,16.5534 -36.97609,36.97633 0,15.17542 9.1504,28.19926 22.22628,33.89608 l 0.48182,-9.33349 c 0,-7.4258 -5.4884,-5.04665 -5.4884,-10.24094 0,-2.9114 0.091,-8.97767 0.091,-13.53214 0,-12.13689 5.15375,-23.87741 6.41979,-26.49724 1.27364,-2.61706 4.26935,-5.47227 4.30159,-2.72416 0,3.98721 0.16997,50.35093 0.16997,50.35093 h -0.008 l 0.56727,14.1047 c 2.64792,0.6048 5.38821,0.95004 8.2151,0.95004 1.54955,0 3.0641,-0.12575 4.56528,-0.31069 l 1.22298,-23.70075 c -3.0185,-0.66078 -5.59274,-2.58229 -7.2077,-4.99323 -2.00028,-2.99731 1.53735,-29.49571 1.53735,-29.49571 h 2.30407 v 24.86892 h 2.28518 v -24.86892 h 2.49661 v 24.86892 h 2.27758 v -24.86892 h 2.59288 v 24.86892 h 2.28265 v -24.86892 h 1.76605 c 0,0 3.5351,26.49862 1.53598,29.49571 -1.6,2.38675 -4.14774,4.30274 -7.1287,4.9824 -0.0534,0.0161 -0.10163,0.0375 -0.10163,0.0375 l 1.15619,22.10859 c 14.73898,-4.86194 25.39194,-18.72619 25.39194,-35.09764 -0.004,-20.4227 -16.55684,-36.97632 -36.977,-36.97632 z"
       id="path7"
       inkscape:connector-curvature="0"
       inkscape:export-xdpi="90"
       inkscape:export-ydpi="90" />
  </g>
</svg>
