<?xml version="1.0" encoding="UTF-8" standalone="no"?>
<!-- Created with Inkscape (http://www.inkscape.org/) -->

<svg
   xmlns:dc="http://purl.org/dc/elements/1.1/"
   xmlns:cc="http://creativecommons.org/ns#"
   xmlns:rdf="http://www.w3.org/1999/02/22-rdf-syntax-ns#"
   xmlns:svg="http://www.w3.org/2000/svg"
   xmlns="http://www.w3.org/2000/svg"
   xmlns:sodipodi="http://sodipodi.sourceforge.net/DTD/sodipodi-0.dtd"
   xmlns:inkscape="http://www.inkscape.org/namespaces/inkscape"
   width="210mm"
   height="297mm"
   id="svg4965"
   version="1.1"
   inkscape:version="0.48.3.1 r9886"
   sodipodi:docname="icon.svg">
  <defs
     id="defs4967">
    <inkscape:path-effect
       effect="spiro"
       id="path-effect6945"
       is_visible="true" />
    <inkscape:path-effect
       effect="spiro"
       id="path-effect6941"
       is_visible="true" />
    <inkscape:path-effect
       effect="spiro"
       id="path-effect6937"
       is_visible="true" />
    <inkscape:path-effect
       effect="spiro"
       id="path-effect6931"
       is_visible="true" />
    <clipPath
       clipPathUnits="userSpaceOnUse"
       id="clipPath2434">
      <path
         inkscape:connector-curvature="0"
         d="m 835.729,330.697 57.598,0 0,-41.769 -57.598,0 0,41.769 z"
         id="path2436" />
    </clipPath>
    <clipPath
       clipPathUnits="userSpaceOnUse"
       id="clipPath3294">
      <path
         inkscape:connector-curvature="0"
         d="m 827.354,646.109 55.874,0 0,-37.108 -55.874,0 0,37.108 z"
         id="path3296" />
    </clipPath>
    <clipPath
       clipPathUnits="userSpaceOnUse"
       id="clipPath2958">
      <path
         inkscape:connector-curvature="0"
         d="m 661.504,357.691 66.064,0 0,-51.671 -66.064,0 0,51.671 z"
         id="path2960" />
    </clipPath>
    <clipPath
       clipPathUnits="userSpaceOnUse"
       id="clipPath3238">
      <path
         inkscape:connector-curvature="0"
         d="m 476.941,586.877 72.635,0 0,-48.24 -72.635,0 0,48.24 z"
         id="path3240" />
    </clipPath>
    <clipPath
       clipPathUnits="userSpaceOnUse"
       id="clipPath1968">
      <path
         inkscape:connector-curvature="0"
         d="m 407.382,654.794 98.075,0 0,-71.117 -98.075,0 0,71.117 z"
         id="path1970" />
    </clipPath>
  </defs>
  <sodipodi:namedview
     id="base"
     pagecolor="#ffffff"
     bordercolor="#666666"
     borderopacity="1.0"
     inkscape:pageopacity="0.0"
     inkscape:pageshadow="2"
     inkscape:zoom="0.7"
     inkscape:cx="375"
     inkscape:cy="805.71429"
     inkscape:document-units="px"
     inkscape:current-layer="g2962"
     showgrid="false"
     inkscape:window-width="1366"
     inkscape:window-height="723"
     inkscape:window-x="0"
     inkscape:window-y="0"
     inkscape:window-maximized="1" />
  <metadata
     id="metadata4970">
    <rdf:RDF>
      <cc:Work
         rdf:about="">
        <dc:format>image/svg+xml</dc:format>
        <dc:type
           rdf:resource="http://purl.org/dc/dcmitype/StillImage" />
        <dc:title></dc:title>
      </cc:Work>
    </rdf:RDF>
  </metadata>
  <g
     inkscape:label="Calque 1"
     inkscape:groupmode="layer"
     id="layer1">
    <g
       id="g6683"
       transform="translate(-81.428571,-190)"
       style="fill:#d40000">
      <g
         transform="matrix(1.25,0,0,-1.25,165.16655,283.46665)"
         id="g1844"
         style="fill:#d40000">
        <path
           inkscape:connector-curvature="0"
           id="path1846"
           style="fill:#d40000;fill-opacity:1;fill-rule:nonzero;stroke:none"
           d="m 0,0 c 0,-2.923 -2.369,-5.278 -5.279,-5.278 -2.918,0 -5.289,2.355 -5.289,5.278 l 0,42.899 c 0,2.92 2.371,5.289 5.289,5.289 2.91,0 5.279,-2.369 5.279,-5.289 L 0,0 z" />
      </g>
      <g
         transform="matrix(1.25,0,0,-1.25,145.7318,283.46665)"
         id="g1848"
         style="fill:#d40000">
        <path
           inkscape:connector-curvature="0"
           id="path1850"
           style="fill:#d40000;fill-opacity:1;fill-rule:nonzero;stroke:none"
           d="m 0,0 c 0,-2.923 -2.362,-5.278 -5.28,-5.278 -2.92,0 -5.282,2.355 -5.282,5.278 l 0,10.236 c 0,2.91 2.362,5.279 5.282,5.279 2.918,0 5.28,-2.369 5.28,-5.279 L 0,0 z" />
      </g>
      <g
         transform="matrix(1.25,0,0,-1.25,184.61355,283.46665)"
         id="g1852"
         style="fill:#d40000">
        <path
           inkscape:connector-curvature="0"
           id="path1854"
           style="fill:#d40000;fill-opacity:1;fill-rule:nonzero;stroke:none"
           d="m 0,0 c 0,-2.923 -2.368,-5.278 -5.287,-5.278 -2.917,0 -5.278,2.355 -5.278,5.278 l 0,25.743 c 0,2.919 2.361,5.281 5.278,5.281 C -2.368,31.024 0,28.662 0,25.743 L 0,0 z" />
      </g>
    </g>
    <g
       id="g6715"
       transform="translate(-197.14286,-405.71429)"
       style="fill:#d40000">
      <path
         inkscape:connector-curvature="0"
         id="path1160"
         style="fill:#d40000;fill-opacity:1;fill-rule:nonzero;stroke:none"
         d="m 442.77879,490.27985 c -9.08625,0 -16.45125,-7.365 -16.45125,-16.45125 0,-9.08625 7.365,-16.45125 16.45125,-16.45125 9.0875,0 16.45375,7.365 16.45375,16.45125 0,9.08625 -7.36625,16.45125 -16.45375,16.45125 m 28.11875,-12.7925 0,-7.36625 -5.665,-1.20375 c -0.3275,-1.50875 -0.8,-2.95875 -1.40875,-4.345 l 3.86,-4.31125 -4.33375,-5.95 -5.2925,2.34625 c -1.13625,-1.00875 -2.37375,-1.91 -3.695,-2.6825 l 0.59125,-5.755 -7.00625,-2.27375 -2.90125,5.00875 c -0.74375,-0.0713 -1.51,-0.1075 -2.2825,-0.1075 -0.77125,0 -1.53,0.0362 -2.28125,0.1125 l -2.90875,-5.00375 -7.0025,2.28 0.60125,5.7575 c -1.31875,0.77125 -2.55625,1.6725 -3.69125,2.69 l -5.29375,-2.345 -4.32875,5.96 3.875,4.305 c -0.61,1.38125 -1.08375,2.8375 -1.40875,4.34625 l -5.66125,1.215 0.006,7.36625 5.6575,1.2075 c 0.3275,1.50875 0.80625,2.95875 1.41375,4.3425 l -3.86375,4.3075 4.3375,5.95625 5.29125,-2.35 c 1.13625,1.01375 2.375,1.91 3.6925,2.68125 l -0.5925,5.76125 7.0075,2.27375 2.8975,-5.00875 c 0.7525,0.0712 1.51625,0.10875 2.285,0.10875 0.7725,0 1.5325,-0.0425 2.2875,-0.115 l 2.905,5.00625 7,-2.28375 -0.60125,-5.7575 c 1.325,-0.775 2.5575,-1.675 3.6875,-2.685 l 5.3025,2.34375 4.32375,-5.9625 -3.86875,-4.30375 c 0.60875,-1.385 1.0825,-2.84 1.41,-4.34625 l 5.655,-1.22 z" />
      <g
         transform="matrix(1.25,0,0,-1.25,482.90817,463.65273)"
         id="g1162"
         style="fill:#d40000">
        <path
           inkscape:connector-curvature="0"
           id="path1164"
           style="fill:#d40000;fill-opacity:1;fill-rule:nonzero;stroke:none"
           d="m 0,0 c -4.32,0 -7.823,3.503 -7.823,7.823 0,4.321 3.503,7.824 7.823,7.824 4.32,0 7.824,-3.503 7.824,-7.824 C 7.824,3.503 4.32,0 0,0 m 13.371,6.083 0,3.504 -2.693,0.571 c -0.157,0.718 -0.381,1.407 -0.672,2.068 l 1.836,2.048 -2.06,2.831 -2.516,-1.116 c -0.541,0.48 -1.129,0.908 -1.757,1.276 l 0.28,2.738 -3.331,1.08 -1.38,-2.383 c -0.355,0.034 -0.719,0.051 -1.086,0.051 -0.367,0 -0.728,-0.017 -1.085,-0.053 l -1.384,2.381 -3.328,-1.086 0.285,-2.738 C -6.146,16.888 -6.734,16.46 -7.275,15.976 l -2.516,1.115 -2.059,-2.833 1.842,-2.048 c -0.289,-0.657 -0.514,-1.35 -0.67,-2.066 l -2.691,-0.577 0.002,-3.504 2.691,-0.575 c 0.155,-0.716 0.382,-1.406 0.672,-2.065 l -1.838,-2.048 2.063,-2.832 2.517,1.117 c 0.539,-0.481 1.129,-0.907 1.755,-1.274 l -0.281,-2.74 3.332,-1.081 1.377,2.381 c 0.358,-0.034 0.722,-0.05 1.087,-0.05 0.368,0 0.728,0.018 1.088,0.054 l 1.381,-2.381 3.33,1.085 -0.286,2.738 c 0.628,0.369 1.213,0.796 1.752,1.277 l 2.522,-1.114 2.057,2.835 -1.84,2.047 c 0.289,0.658 0.513,1.349 0.669,2.067 l 2.69,0.579 z" />
      </g>
    </g>
    <g
       id="g730"
       transform="matrix(1.25,0,0,-1.25,531.21049,483.74361)"
       style="fill:#d40000">
      <path
         d="m 0,0 c 0,0 -0.986,8.111 0.803,12.791 1.787,4.678 2.978,5.721 8.486,6.503 5.508,0.782 8.539,2.947 9.313,3.659 0.773,0.713 2.019,1.477 2.767,1.811 0,0 -0.215,5.566 -2.929,8.824 0,0 -1.037,0.385 -1.213,1.126 -0.18,0.739 -0.71,3.999 0.058,5.362 0,0 0.506,0.645 0.451,1.106 -0.053,0.463 -0.646,4.564 3.018,7.879 0,0 1.082,1.74 -1.539,2.033 0,0 1.219,0.633 3.032,-0.289 0,0 -0.731,1.104 0.423,1.691 0,0 -0.494,-1.771 1.43,-1.185 1.922,0.586 4.661,1.108 6.478,0.433 1.82,-0.676 2.256,-1.615 4.575,-1.748 2.322,-0.132 3.15,-3.092 3.212,-4.209 0.061,-1.117 -0.057,-5.652 0.367,-6.264 0.426,-0.609 0.569,-1.053 0.426,-2.142 -0.142,-1.09 -1.015,-3.91 -1.505,-3.957 -0.487,-0.044 -0.9,-0.459 -0.931,-0.637 -0.029,-0.177 -1.42,-4.076 -1.396,-5.456 0.024,-1.38 0.053,-2.958 1.129,-3.278 1.076,-0.323 2.473,-2.27 3.334,-3.133 0.865,-0.863 5.938,-2.034 8.234,-3.11 2.299,-1.078 3.232,-0.916 4.574,-5.409 C 53.939,7.908 55.004,3.292 55.02,0 L 0,0 z"
         style="fill:#d40000;fill-opacity:1;fill-rule:evenodd;stroke:none"
         id="path732"
         inkscape:connector-curvature="0" />
    </g>
    <g
       transform="matrix(1.25,0,0,-1.25,-560.65987,753.91369)"
       id="g2430"
       style="fill:#d40000">
      <g
         id="g2432"
         style="fill:#d40000" />
      <g
         id="g2438"
         style="fill:#d40000">
        <g
           clip-path="url(#clipPath2434)"
           id="g2440"
           style="opacity:0.60000598;fill:#d40000">
          <g
             transform="translate(867.9053,327.2637)"
             id="g2442"
             style="fill:#d40000">
            <path
               d="m 0,0 -23.895,0 c -4.572,0 -8.282,-3.43 -8.282,-7.666 l 0,-12.379 c 0,-4.235 3.71,-7.665 8.282,-7.665 l 1.237,0 c -1.295,-3.236 -4.322,-10.81 -4.256,-10.622 0.07,0.198 11.01,7.805 15.066,10.622 l 11.848,0 c 4.573,0 8.287,3.43 8.287,7.665 l 0,12.379 C 8.287,-3.43 4.573,0 0,0"
               style="fill:#d40000;fill-opacity:1;fill-rule:nonzero;stroke:none"
               id="path2444"
               inkscape:connector-curvature="0" />
          </g>
          <g
             transform="translate(886.5518,330.6973)"
             id="g2446"
             style="fill:#d40000">
            <path
               d="m 0,0 -19.549,0 c -1.086,0 -2.111,-0.241 -3.021,-0.664 l 5.652,0 c 5.233,0 9.478,-3.931 9.478,-8.774 l 0,-14.166 c 0,-0.242 -0.019,-0.481 -0.04,-0.714 4,-2.782 9.904,-6.909 9.952,-7.041 0.055,-0.155 -2.422,6.041 -3.484,8.689 l 1.012,0 c 3.742,0 6.775,2.808 6.775,6.273 l 0,10.126 C 6.775,-2.81 3.742,0 0,0"
               style="fill:#d40000;fill-opacity:1;fill-rule:nonzero;stroke:none"
               id="path2448"
               inkscape:connector-curvature="0" />
          </g>
        </g>
      </g>
    </g>
    <g
       transform="matrix(1.25,0,0,-1.25,-447.68486,1149.0917)"
       id="g3290"
       style="fill:#d40000">
      <g
         id="g3292"
         style="fill:#d40000" />
      <g
         id="g3298"
         style="fill:#d40000">
        <g
           clip-path="url(#clipPath3294)"
           id="g3300"
           style="opacity:0.60000598;fill:#d40000">
          <g
             transform="translate(859.5322,637.4453)"
             id="g3302"
             style="fill:#d40000">
            <path
               d="m 0,0 c 0,0 -3.926,11.68 -19.629,7.917 -15.702,-3.765 -9.534,-38.938 20.89,-36.211 18.647,1.56 22.434,10.512 22.434,10.512 0,0 -16.545,2.338 -23.695,17.782"
               style="fill:#d40000;fill-opacity:1;fill-rule:nonzero;stroke:none"
               id="path3304"
               inkscape:connector-curvature="0" />
          </g>
          <g
             transform="translate(841.8682,620.0537)"
             id="g3306"
             style="fill:#d40000">
            <path
               d="m 0,0 c 0,0 -3.928,9.603 6.727,14.147 10.658,4.543 14.3,-2.078 15.844,-4.283 1.542,-2.208 11.636,-9.343 17.388,-4.543 0,0 -7.152,-12.849 -24.82,-11.809 C 1.4,-4.412 0,0 0,0"
               style="fill:#d40000;fill-opacity:1;fill-rule:nonzero;stroke:none"
               id="path3308"
               inkscape:connector-curvature="0" />
          </g>
          <g
             transform="translate(832.4033,638.0293)"
             id="g3310"
             style="fill:#d40000">
            <path
               d="m 0,0 c 0,0 -4.065,-1.104 -5.049,-2.078 l 4.209,-4.216 c 0,0 0.069,3.828 0.84,6.294"
               style="fill:#d40000;fill-opacity:1;fill-rule:nonzero;stroke:none"
               id="path3312"
               inkscape:connector-curvature="0" />
          </g>
          <g
             transform="translate(839.2021,639.3906)"
             id="g3314"
             style="fill:#d40000">
            <path
               d="M 0,0 C 0,1.338 1.172,2.424 2.617,2.424 4.063,2.424 5.236,1.338 5.236,0 5.236,-1.339 4.063,-2.425 2.617,-2.425 1.172,-2.425 0,-1.339 0,0"
               style="fill:#d40000;fill-opacity:1;fill-rule:nonzero;stroke:none"
               id="path3316"
               inkscape:connector-curvature="0" />
          </g>
          <g
             transform="translate(839.5303,639.7461)"
             id="g3318"
             style="fill:#d40000">
            <path
               d="M 0,0 C 0,0.927 0.809,1.677 1.812,1.677 2.813,1.677 3.621,0.927 3.621,0 3.621,-0.925 2.813,-1.674 1.812,-1.674 0.809,-1.674 0,-0.925 0,0"
               style="fill:#d40000;fill-opacity:1;fill-rule:nonzero;stroke:none"
               id="path3320"
               inkscape:connector-curvature="0" />
          </g>
          <g
             transform="translate(839.9033,639.8779)"
             id="g3322"
             style="fill:#d40000">
            <path
               d="M 0,0 C 0,0.539 0.471,0.976 1.053,0.976 1.634,0.976 2.104,0.539 2.104,0 2.104,-0.537 1.634,-0.972 1.053,-0.972 0.471,-0.972 0,-0.537 0,0"
               style="fill:#d40000;fill-opacity:1;fill-rule:nonzero;stroke:none"
               id="path3324"
               inkscape:connector-curvature="0" />
          </g>
        </g>
      </g>
    </g>
    <g
       transform="matrix(1.25,0,0,-1.25,-539.5987,918.61013)"
       id="g2954"
       style="fill:#d40000">
      <g
         id="g2956"
         style="fill:#d40000" />
      <g
         id="g2962"
         style="fill:#d40000">
        <g
           clip-path="url(#clipPath2958)"
           id="g2964"
           style="fill:#d40000"
           transform="matrix(1.5881742,0,0,1.5881742,-215.59389,57.043408)">
          <g
             transform="translate(704.5332,306.0195)"
             id="g2966"
             style="fill:#d40000">
            <path
               d="M 0,0 C 0,14.59 -9.637,26.419 -21.518,26.419 -33.396,26.419 -43.029,14.59 -43.029,0 L 0,0 z"
               style="fill:#d40000;fill-opacity:1;fill-rule:nonzero;stroke:none"
               id="path2968"
               inkscape:connector-curvature="0" />
          </g>
          <g
             transform="translate(695.334,346.0059)"
             id="g2970"
             style="fill:#d40000">
            <path
               d="m 0,0 c 0,6.454 -5.658,11.686 -12.629,11.686 -6.975,0 -12.622,-5.232 -12.622,-11.686 0,-6.466 5.647,-11.7 12.622,-11.7 C -5.658,-11.7 0,-6.466 0,0"
               style="fill:#d40000;fill-opacity:1;fill-rule:nonzero;stroke:none"
               id="path2972"
               inkscape:connector-curvature="0" />
          </g>
          <g
             transform="translate(706.0488,332.4385)"
             id="g2974"
             style="fill:#d40000">
            <path
               d="m 0,0 c -2.809,0 -5.489,-0.685 -7.949,-1.888 7.941,-3.89 13.558,-13.393 13.558,-24.531 l 15.911,0 C 21.52,-11.829 11.888,0 0,0"
               style="fill:#d40000;fill-opacity:1;fill-rule:nonzero;stroke:none"
               id="path2976"
               inkscape:connector-curvature="0" />
          </g>
          <g
             transform="translate(702.458,346.0059)"
             id="g2978"
             style="fill:#d40000">
            <path
               d="m 0,0 c 0,-3.673 -1.823,-6.938 -4.67,-9.085 2.17,-1.634 4.937,-2.615 7.947,-2.615 6.978,0 12.634,5.234 12.634,11.7 0,6.454 -5.656,11.686 -12.634,11.686 -3.01,0 -5.777,-0.984 -7.947,-2.618 C -1.823,6.927 0,3.658 0,0"
               style="fill:#d40000;fill-opacity:1;fill-rule:nonzero;stroke:none"
               id="path2980"
               inkscape:connector-curvature="0" />
          </g>
        </g>
        <g
           transform="translate(427.90618,123.38421)"
           id="g3234"
           style="fill:#d40000">
          <g
             id="g3236"
             style="fill:#d40000" />
          <g
             id="g3242"
             style="fill:#d40000">
            <g
               clip-path="url(#clipPath3238)"
               id="g3244"
               style="opacity:0.69999701;fill:#d40000">
              <g
                 transform="translate(518.7754,575.6143)"
                 id="g3246"
                 style="fill:#d40000">
                <path
                   d="m 0,0 c 0,0 -5.104,15.183 -25.52,10.293 -20.411,-4.895 -12.396,-50.618 27.158,-47.075 24.242,2.028 29.163,13.665 29.163,13.665 0,0 -21.508,3.039 -30.801,23.117"
                   style="fill:#d40000;fill-opacity:1;fill-rule:nonzero;stroke:none"
                   id="path3248"
                   inkscape:connector-curvature="0" />
              </g>
              <g
                 transform="translate(495.8096,553.0049)"
                 id="g3250"
                 style="fill:#d40000">
                <path
                   d="m 0,0 c 0,0 -5.105,12.482 8.745,18.39 13.856,5.908 18.592,-2.699 20.598,-5.568 2.008,-2.87 15.127,-12.145 22.604,-5.904 0,0 -9.3,-16.705 -32.264,-15.352 C 1.821,-5.736 0,0 0,0"
                   style="fill:#d40000;fill-opacity:1;fill-rule:nonzero;stroke:none"
                   id="path3252"
                   inkscape:connector-curvature="0" />
              </g>
              <g
                 transform="translate(483.5059,576.373)"
                 id="g3254"
                 style="fill:#d40000">
                <path
                   d="m 0,0 c 0,0 -5.286,-1.435 -6.565,-2.703 l 5.473,-5.48 c 0,0 0.09,4.979 1.092,8.183"
                   style="fill:#d40000;fill-opacity:1;fill-rule:nonzero;stroke:none"
                   id="path3256"
                   inkscape:connector-curvature="0" />
              </g>
              <g
                 transform="translate(492.3447,578.1416)"
                 id="g3258"
                 style="fill:#d40000">
                <path
                   d="M 0,0 C 0,1.739 1.521,3.15 3.402,3.15 5.28,3.15 6.807,1.739 6.807,0 6.807,-1.74 5.28,-3.152 3.402,-3.152 1.521,-3.152 0,-1.74 0,0"
                   style="fill:#d40000;fill-opacity:1;fill-rule:nonzero;stroke:none"
                   id="path3260"
                   inkscape:connector-curvature="0" />
              </g>
              <g
                 transform="translate(492.7725,578.6045)"
                 id="g3262"
                 style="fill:#d40000">
                <path
                   d="M 0,0 C 0,1.205 1.05,2.18 2.354,2.18 3.656,2.18 4.706,1.205 4.706,0 4.706,-1.202 3.656,-2.174 2.354,-2.174 1.05,-2.174 0,-1.202 0,0"
                   style="fill:#d40000;fill-opacity:1;fill-rule:nonzero;stroke:none"
                   id="path3264"
                   inkscape:connector-curvature="0" />
              </g>
              <g
                 transform="translate(493.2554,578.7773)"
                 id="g3266"
                 style="fill:#d40000">
                <path
                   d="M 0,0 C 0,0.699 0.61,1.268 1.37,1.268 2.125,1.268 2.735,0.699 2.735,0 2.735,-0.7 2.125,-1.265 1.37,-1.265 0.61,-1.265 0,-0.7 0,0"
                   style="fill:#d40000;fill-opacity:1;fill-rule:nonzero;stroke:none"
                   id="path3268"
                   inkscape:connector-curvature="0" />
              </g>
            </g>
          </g>
        </g>
        <g
           transform="translate(369.31665,58.90577)"
           id="g1964"
           style="fill:#d40000">
          <g
             id="g1966"
             style="fill:#d40000" />
          <g
             id="g1972"
             style="fill:#d40000">
            <g
               clip-path="url(#clipPath1968)"
               id="g1974"
               style="opacity:0.69999701;fill:#d40000">
              <g
                 transform="translate(462.1729,648.9521)"
                 id="g1976"
                 style="fill:#d40000">
                <path
                   d="m 0,0 -40.684,0 c -7.787,0 -14.107,-5.847 -14.107,-13.055 l 0,-21.076 c 0,-7.21 6.32,-13.052 14.107,-13.052 l 2.104,0 c -2.204,-5.515 -7.364,-18.405 -7.246,-18.087 0.116,0.332 18.737,13.283 25.656,18.087 l 20.17,0 c 7.79,0 14.103,5.842 14.103,13.052 l 0,21.076 C 14.103,-5.847 7.79,0 0,0"
                   style="fill:#d40000;fill-opacity:1;fill-rule:nonzero;stroke:none"
                   id="path1978"
                   inkscape:connector-curvature="0" />
              </g>
              <g
                 transform="translate(493.9199,654.7939)"
                 id="g1980"
                 style="fill:#d40000">
                <path
                   d="m 0,0 -33.284,0 c -1.854,0 -3.599,-0.416 -5.149,-1.131 l 9.626,0 c 8.912,0 16.136,-6.69 16.136,-14.938 l 0,-24.122 c 0,-0.411 -0.033,-0.814 -0.066,-1.216 6.813,-4.739 16.866,-11.761 16.944,-11.982 0.094,-0.265 -4.128,10.284 -5.928,14.791 l 1.721,0 c 6.373,0 11.537,4.782 11.537,10.678 l 0,17.241 C 11.537,-4.781 6.373,0 0,0"
                   style="fill:#d40000;fill-opacity:1;fill-rule:nonzero;stroke:none"
                   id="path1982"
                   inkscape:connector-curvature="0" />
              </g>
            </g>
          </g>
        </g>
        <g
           id="g536"
           transform="matrix(2.282343,0,0,2.282343,571.30696,563.07561)"
           style="fill:#d40000">
          <path
             d="m 0,0 c 0,-0.908 -0.906,-1.65 -2.004,-1.65 l -51.248,0 c -1.098,0 -2.004,0.742 -2.004,1.65 l 0,2.035 c 0,0.906 0.906,1.649 2.004,1.649 l 51.248,0 C -0.906,3.684 0,2.941 0,2.035 L 0,0 z"
             style="fill:#d40000;fill-opacity:1;fill-rule:nonzero;stroke:none"
             id="path538"
             inkscape:connector-curvature="0" />
        </g>
        <g
           id="g540"
           transform="matrix(2.282343,0,0,2.282343,468.77088,495.8177)"
           style="fill:#d40000">
          <path
             d="m 0,0 -0.031,0 c -0.453,0 -0.821,0.342 -0.821,0.764 l 0,19.181 c 0,0.422 0.368,0.766 0.821,0.766 0.482,0 0.853,-0.344 0.853,-0.766 l 0,-18.263 33.446,0 c 0.431,0 0.783,-0.371 0.783,-0.825 0,-0.482 -0.352,-0.849 -0.783,-0.849 L 0,0 z m 3.324,7.023 c 0,0.469 0.373,0.854 0.824,0.854 l 3.547,0 c 0.459,0 0.828,-0.385 0.828,-0.854 l 0,-3.72 -5.199,0 0,3.72 z m 7.885,2.266 c 0,0.471 0.371,0.854 0.83,0.854 l 3.547,0 c 0.455,0 0.826,-0.383 0.826,-0.854 l 0,-5.986 -5.203,0 0,5.986 z m 7.832,3.086 c 0,0.484 0.371,0.883 0.828,0.883 l 3.549,0 c 0.457,0 0.83,-0.399 0.83,-0.883 l 0,-9.018 -5.207,0 0,9.018 z m 7.883,6.922 c 0,0.515 0.375,0.933 0.828,0.933 l 3.549,0 c 0.453,0 0.826,-0.418 0.826,-0.933 l 0,-15.883 -5.203,0 0,15.883 z m 11.998,-41.399 c -0.705,0 -1.346,-0.265 -1.842,-0.693 l -19.498,11.555 0,8.066 22.77,0 0,28.072 -46.237,0 0,-28.072 21.946,0 0,-8.428 -18.911,-11.205 c -0.5,0.43 -1.144,0.705 -1.857,0.705 -1.578,0 -2.859,-1.281 -2.859,-2.857 0,-1.58 1.281,-2.859 2.859,-2.859 1.574,0 2.855,1.279 2.855,2.859 0,0.309 -0.062,0.602 -0.154,0.883 l 18.067,10.703 0,-8.084 c -1.207,-0.334 -2.096,-1.428 -2.096,-2.742 0,-1.576 1.277,-2.858 2.853,-2.858 1.582,0 2.86,1.282 2.86,2.858 0,1.314 -0.891,2.408 -2.096,2.742 l 0,8.445 18.643,-11.049 c -0.096,-0.281 -0.161,-0.584 -0.161,-0.898 0,-1.58 1.28,-2.859 2.858,-2.859 1.582,0 2.857,1.279 2.857,2.859 0,1.576 -1.275,2.857 -2.857,2.857"
             style="fill:#d40000;fill-opacity:1;fill-rule:nonzero;stroke:none"
             id="path542"
             inkscape:connector-curvature="0" />
        </g>
        <g
           id="g6971"
           style="fill:#d40000"
           transform="matrix(1.817152,0,0,1.817152,-884.23874,-51.519041)">
          <g
             transform="translate(868.62623,284.87021)"
             id="g688"
             style="fill:#d40000">
            <path
               inkscape:connector-curvature="0"
               id="path690"
               style="fill:#d40000;fill-opacity:1;fill-rule:nonzero;stroke:none"
               d="m 0,0 c -5.281,0 -9.555,4.285 -9.555,9.563 0,5.277 4.274,9.554 9.555,9.554 5.277,0 9.551,-4.277 9.551,-9.554 C 9.551,4.285 5.277,0 0,0 m 17.127,4.549 5.752,0 0,10.021 -5.752,0 c -0.377,1.227 -0.912,2.401 -1.551,3.487 l 4.141,4.146 -7.086,7.076 -4.434,-4.431 c -1.01,0.472 -2.078,0.865 -3.193,1.136 l 0,6.465 -10.01,0 0,-7.062 c -0.889,-0.33 -1.74,-0.737 -2.547,-1.198 l -5.088,5.09 -7.084,-7.076 5.397,-5.391 c -0.346,-0.722 -0.654,-1.466 -0.895,-2.242 l -7.666,0 0,-10.021 7.666,0 c 0.241,-0.77 0.549,-1.514 0.895,-2.236 l -5.397,-5.391 7.084,-7.084 5.088,5.098 c 0.807,-0.473 1.658,-0.873 2.547,-1.204 l 0,-7.054 10.01,0 0,6.459 c 1.115,0.275 2.178,0.66 3.193,1.144 l 4.434,-4.443 7.086,7.084 -4.141,4.142 c 0.639,1.09 1.174,2.26 1.551,3.485" />
          </g>
          <path
             inkscape:connector-curvature="0"
             id="path694"
             style="fill:#d40000;fill-opacity:1;fill-rule:nonzero;stroke:none"
             d="m 888.47583,321.4678 c -3.693,0 -6.682,2.996 -6.682,6.687 0,3.692 2.989,6.684 6.682,6.684 3.691,0 6.682,-2.992 6.682,-6.684 0,-3.691 -2.991,-6.687 -6.682,-6.687 m 16.002,3.182 0,7.007 -4.023,0 c -0.264,0.858 -0.637,1.68 -1.084,2.44 l 2.896,2.9 -4.955,4.95 -3.102,-3.1 c -0.707,0.33 -1.455,0.603 -2.234,0.795 l 0,4.521 -7.002,0 0,-4.939 c -0.619,-0.231 -1.217,-0.516 -1.781,-0.838 l -3.559,3.561 -4.953,-4.95 3.774,-3.771 c -0.243,-0.504 -0.458,-1.026 -0.625,-1.569 l -5.364,0 0,-7.007 5.364,0 c 0.167,-0.539 0.382,-1.059 0.625,-1.565 l -3.774,-3.771 4.953,-4.955 3.559,3.566 c 0.564,-0.33 1.162,-0.611 1.781,-0.842 l 0,-4.933 7.002,0 0,4.517 c 0.779,0.194 1.523,0.461 2.234,0.801 l 3.102,-3.109 4.955,4.955 -2.896,2.898 c 0.447,0.762 0.82,1.58 1.084,2.438 l 4.023,0 z" />
        </g>
      </g>
    </g>
  </g>
</svg>
